<svg xmlns="http://www.w3.org/2000/svg" width="64" height="64" viewBox="0 0 24 24" fill="none" stroke-width="2" stroke-linecap="round" stroke-linejoin="round">
  <style>
    /* Default (Light Mode): Black Stroke */
    path { stroke: #09090b; }
    
    /* Dark Mode: White Stroke */
    @media (prefers-color-scheme: dark) {
      path { stroke: #fafafa; }
    }
  </style>
  
  <!-- Brain Circuit Paths -->
  <path d="M12 5a3 3 0 1 0-5.997.125 4 4 0 0 0-2.526 5.77 4 4 0 0 0 .556 6.588A4 4 0 1 0 12 18Z" />
  <path d="M12 5a3 3 0 1 1 5.997.125 4 4 0 0 1 2.526 5.77 4 4 0 0 1-.556 6.588A4 4 0 1 1 12 18Z" />
  <path d="M12 2v2" />
  <path d="M12 20v2" />
  <path d="M20 12h2" />
  <path d="M2 12h2" />
</svg>