<svg xmlns="http://www.w3.org/2000/svg" width="64" height="64" viewBox="0 0 24 24" fill="none" stroke="#7c3aed" stroke-width="2" stroke-linecap="round" stroke-linejoin="round">
  <style>
    .brain-shape { fill: #7c3aed; fill-opacity: 0.1; }
  </style>
  
  <path class="brain-shape" d="M12 5a3 3 0 1 0-5.997.125 4 4 0 0 0-2.526 5.77 4 4 0 0 0 .556 6.588A4 4 0 1 0 12 18Z"/>
  <path class="brain-shape" d="M12 5a3 3 0 1 1 5.997.125 4 4 0 0 1 2.526 5.77 4 4 0 0 1-.556 6.588A4 4 0 1 1 12 18Z"/>
  
  <path d="M15 13v-3"/>
  <path d="M9 13v-3"/>
  <path d="M7 9h2"/>
  <path d="M15 9h2"/>
  <path d="M12 2v2"/>
  <path d="M12 20v2"/>
</svg>